<svg id="Layer_4" data-name="Layer 4" xmlns="http://www.w3.org/2000/svg" viewBox="0 0 625.21 169.96"><path d="M824.6,499.66H798.84V473.89H824.6Zm0,64.12H798.84v25.77H824.6Zm-484,30.84-38-54.29c22.43-8.74,35.18-27.15,35.18-52.17,0-36.59-26.91-58.78-70.35-58.78h-68V594.62h30.68V546.46h37.3a58.78,58.78,0,0,0,6.37-.23l33.76,48.39ZM306.8,488.16c0,20.77-13.92,33.05-40.84,33.05H230.08V455.35H266C292.88,455.35,306.8,467.39,306.8,488.16ZM423.18,597c45.32,0,66.8-22.66,66.8-49.1,0-60.67-98-37.77-98-72.94,0-12.51,10.39-22.43,35.88-22.43,14.4,0,30.69,4.25,45.56,13l9.68-23.84c-14.4-9.45-35.18-14.64-55-14.64-45.29,0-66.57,22.66-66.57,49.34,0,61.37,98.2,38,98.2,73.65,0,12.27-10.86,21.48-36.59,21.48-20.3,0-41.31-7.56-54.5-18.18L358,577.15C371.72,589,397.45,597,423.18,597Zm148.51,0c45.29,0,66.77-22.66,66.77-49.1,0-60.67-98-37.77-97.93-72.94,0-12.51,10.39-22.43,35.88-22.43,14.37,0,30.66,4.25,45.53,13l9.68-23.84c-14.4-9.45-35.18-14.64-55-14.64-45.33,0-66.58,22.66-66.55,49.34,0,61.37,98.21,38,98.21,73.65,0,12.27-10.86,21.48-36.59,21.48-20.34,0-41.35-7.56-54.57-18.18L506.5,577.15C520.19,589,545.92,597,571.69,597Zm154.62-99.35L766.44,450V429.38H653.81v25.73h75.06l-37.53,44.62v21h15.11c25,0,35.88,9.72,35.88,24.55,0,15.35-13,25-34.94,25-18.65,0-36.59-6.38-48.39-16.29l-13.22,23.84c15.31,12,38.68,19.12,62.05,19.12,44.41,0,65.42-24.08,65.42-51.93C773.25,520.26,757.43,501.61,726.31,497.63Z" transform="translate(-199.4 -427.02)"/></svg>